<?xml version="1.0" encoding="UTF-8"?>
<svg viewBox="0 0 112 163" xmlns="http://www.w3.org/2000/svg">
 <path d="m57.309 28.614c12.105 0 19.901 12.699 20.064 28.446h-40.128c0.16259-15.747 7.9589-28.446 20.064-28.446zm0-15.723c-18.861 0-34.145 19.958-34.145 44.575l0.00813 0.61785c-6.4143 2.3495-10.983 8.4874-10.983 15.69v39.209c0 17.454 20.202 31.608 45.12 31.608s45.12-14.154 45.12-31.608v-39.209c0-7.2029-4.5689-13.341-10.983-15.69l0.00813-0.61785c0-24.617-15.284-44.575-34.145-44.575zm-12.804 81.248c0-7.0484 5.7314-12.764 12.804-12.764s12.804 5.7152 12.804 12.764c0 4.512-2.3495 8.4792-5.894 10.747v11.747h-13.82v-11.747c-3.5445-2.2682-5.894-6.2354-5.894-10.747z" fill="#242424" fill-rule="evenodd"/>
</svg>
